<svg xmlns="http://www.w3.org/2000/svg" xmlns:xlink="http://www.w3.org/1999/xlink" width="16" height="16" version="1.1" viewBox="0 0 16 16"><title>884A6DFD-7A00-4AF9-B17B-D7B543A4168A</title><desc>Created with sketchtool.</desc><g id="6.1-STO-issuer-side" fill="none" fill-rule="evenodd" stroke="none" stroke-width="1"><g id="STO-overview-tiers-usd" fill="currentColor" transform="translate(-164.000000, -559.000000)"><g id="token-details-ver.2" transform="translate(120.000000, 181.000000)"><g id="table" transform="translate(24.000000, 338.000000)"><g id="icn-check-list" transform="translate(20.000000, 40.000000)"><path id="Shape" d="M8,1.33333333 C11.6666667,1.33333333 14.6666667,4.33333333 14.6666667,8 C14.6666667,11.6666667 11.6666667,14.6666667 8,14.6666667 C4.33333333,14.6666667 1.33333333,11.6666667 1.33333333,8 C1.33333333,4.33333333 4.33333333,1.33333333 8,1.33333333 L8,1.33333333 Z M8,0 C3.6,0 0,3.6 0,8 C0,12.4 3.6,16 8,16 C12.4,16 16,12.4 16,8 C16,3.6 12.4,0 8,0 L8,0 L8,0 Z"/><polygon id="Shape" points="6.867 9.067 5.133 7.333 4.2 8.267 6.867 10.933 11.867 6 10.933 5.067"/></g></g></g></g></g></svg>