<svg xmlns="http://www.w3.org/2000/svg" xmlns:xlink="http://www.w3.org/1999/xlink" width="16" height="16" version="1.1" viewBox="0 0 16 16"><title>B5E56BDE-8883-4F54-A44E-0FBBD1C0D283</title><desc>Created with sketchtool.</desc><g id="6.1-STO-issuer-side" fill="none" fill-rule="evenodd" stroke="none" stroke-width="1"><g id="STO-overview-tiers-usd" fill-rule="nonzero" transform="translate(-164.000000, -591.000000)"><g id="token-details-ver.2" transform="translate(120.000000, 181.000000)"><g id="table" transform="translate(24.000000, 338.000000)"><g id="icn-progres" transform="translate(20.000000, 72.000000)"><path id="Shape" fill="currentColor" d="M8,1.33333333 C11.676,1.33333333 14.6666667,4.324 14.6666667,8 C14.6666667,11.676 11.676,14.6666667 8,14.6666667 C4.324,14.6666667 1.33333333,11.676 1.33333333,8 C1.33333333,4.324 4.324,1.33333333 8,1.33333333 Z M8,0 C3.582,0 0,3.582 0,8 C0,12.418 3.582,16 8,16 C12.418,16 16,12.418 16,8 C16,3.582 12.418,0 8,0 Z"/><g id="Group-2" stroke="currentColor" stroke-width="1.2" transform="translate(4.000000, 5.000000)"><polyline id="Path-2" points="0 6 2 3.5 5 3 8 0"/><polyline id="Path-3" points="5 0 8 0 8 3"/></g></g></g></g></g></g></svg>